<?xml version="1.0" encoding="UTF-8"?>
<svg id="Layer_1" xmlns="http://www.w3.org/2000/svg" version="1.1" viewBox="0 0 192 351.9">
  <!-- Generator: Adobe Illustrator 29.1.0, SVG Export Plug-In . SVG Version: 2.1.0 Build 142)  -->
  <defs>
    <style>
      .st0 {
        fill: #b7b7b7;
      }
    </style>
  </defs>
  <path class="st0" d="M181.9,1.1c5.6,2.2,9.8,7.8,10,13.8.4,4.8-1.6,9.5-5.1,12.8-49.4,49.4-98.8,98.8-148.2,148.2,49.5,49.6,99.1,99.1,148.7,148.7,3.5,3.5,5.2,8.6,4.5,13.5-.8,7.3-7.4,13.5-14.8,13.7-4.8.4-9.6-1.6-12.9-5.1C111.3,293.9,58.5,241.1,5.6,188.3c-4.2-3.8-6.4-9.6-5.4-15.2.6-4.2,3.4-7.7,6.4-10.5C59.4,110,112,57.3,164.7,4.7c4.4-4.5,11.4-5.9,17.2-3.6h0Z"/>
</svg>