<?xml version="1.0" encoding="UTF-8"?>
<svg id="Layer_1" xmlns="http://www.w3.org/2000/svg" version="1.1" viewBox="0 0 192 351.9">
  <!-- Generator: Adobe Illustrator 29.1.0, SVG Export Plug-In . SVG Version: 2.1.0 Build 142)  -->
  <defs>
    <style>
      .st0 {
        fill: #b7b7b7;
      }
    </style>
  </defs>
  <path class="st0" d="M10.1,350.8c-5.6-2.2-9.8-7.8-10-13.8-.4-4.8,1.6-9.5,5.1-12.8,49.4-49.4,98.8-98.8,148.2-148.2C103.8,126.4,54.2,76.8,4.7,27.2,1.1,23.8-.6,18.7.2,13.8,1,6.4,7.6.3,15,0c4.8-.4,9.6,1.6,12.9,5.1,52.8,52.8,105.6,105.7,158.5,158.5,4.2,3.8,6.4,9.6,5.4,15.2-.6,4.2-3.4,7.7-6.4,10.5-52.7,52.6-105.3,105.3-158,158-4.4,4.5-11.4,5.9-17.2,3.6h0Z"/>
</svg>